Coordinates
version=1
nRows=8
nColumns=46
inDegrees=yes

Units are S.I. units (second, meters, Newtons, ...)
Angles are in degrees.

endheader
time	pelvis_tilt	pelvis_list	pelvis_rotation	pelvis_tx	pelvis_ty	pelvis_tz	bb_angle	bb_tx	bb_ty	bb_tz	hip_flexion_r	hip_adduction_r	hip_rotation_r	knee_angle_r	knee_angle_r_beta	ankle_angle_r	subtalar_angle_r	mtp_angle_r	crank_angle_r	hip_flexion_l	hip_adduction_l	hip_rotation_l	knee_angle_l	knee_angle_l_beta	ankle_angle_l	subtalar_angle_l	mtp_angle_l	crank_angle_l	lumbar_extension	lumbar_bending	lumbar_rotation	arm_flex_r	arm_add_r	arm_rot_r	elbow_flex_r	pro_sup_r	wrist_flex_r	wrist_dev_r	arm_flex_l	arm_add_l	arm_rot_l	elbow_flex_l	pro_sup_l	wrist_flex_l	wrist_dev_l
      7.50000000	     -9.01220318	      6.29338996	      2.22020667	      0.18950912	      1.06002318	     -0.30614046	      0.00000000	      0.50000000	      0.00000000	      0.25000000	     57.13713661	    -11.08647029	      6.60140849	     89.03613689	      1.55397374	    -20.63152265	    -13.81445493	      0.00000000	      0.00000000	     66.38718205	     -1.98386029	     -3.79225710	     71.39296885	      1.24604237	      2.50749516	     -6.70596855	      0.00000000	      0.00000000	    -71.82542039	     -8.13232399	     -3.72961627	     88.56016034	    -35.06203644	     40.11029012	     65.00969043	     39.66904414	      0.00000000	      0.00000000	     89.59905080	    -16.18011559	     35.27698105	     68.03495795	     37.34366869	      0.00000000	      0.00000000
      7.50500000	     -8.87615150	      5.88803402	      2.12693606	      0.18914789	      1.05935178	     -0.30600019	      0.00000000	      0.50000000	      0.00000000	      0.25000000	     58.29551574	    -10.52893363	      6.75041588	     91.28424751	      1.59321067	    -20.39941724	    -13.99469782	      0.00000000	      0.00000000	     65.09476142	     -2.14017011	     -3.46165808	     69.29604628	      1.20944417	      1.23480260	     -6.23609901	      0.00000000	      0.00000000	    -71.84584845	     -7.91794072	     -3.31851158	     88.64831968	    -34.95367358	     40.03127825	     65.05238318	     39.67814230	      0.00000000	      0.00000000	     89.58475737	    -16.27239730	     35.18144827	     68.07456052	     37.32608149	      0.00000000	      0.00000000
      7.51000000	     -8.50474757	      6.21368901	      2.01931557	      0.18891683	      1.05945223	     -0.30616736	      0.00000000	      0.50000000	      0.00000000	      0.25000000	     59.40798777	    -10.67375326	      7.38379002	     93.53762804	      1.63253958	    -20.18359571	    -13.90766871	      0.00000000	      0.00000000	     63.20141169	     -1.82340610	     -3.94412957	     66.76966997	      1.16535058	     -0.54942935	     -6.83039633	      0.00000000	      0.00000000	    -72.25643645	     -8.05573443	     -3.72042326	     88.66198893	    -34.86485205	     39.87811149	     65.17118280	     39.69329768	      0.00000000	      0.00000000	     89.59278195	    -16.31852143	     35.05483949	     68.08823473	     37.21134632	      0.00000000	      0.00000000
      7.51500000	     -8.29230446	      5.81489692	      1.84024250	      0.18853696	      1.05889528	     -0.30620544	      0.00000000	      0.50000000	      0.00000000	      0.25000000	     60.56832421	    -10.19224218	      7.41488435	     95.68159697	      1.66995890	    -19.89599832	    -14.07356169	      0.00000000	      0.00000000	     61.69086824	     -2.04312619	     -3.72782438	     64.59388576	      1.12737598	     -1.72753063	     -6.63419578	      0.00000000	      0.00000000	    -72.31419718	     -7.88399725	     -3.32344478	     88.77507392	    -34.70892951	     39.78736440	     65.23111843	     39.70126482	      0.00000000	      0.00000000	     89.58373926	    -16.45987847	     34.93034207	     68.10664143	     37.18067188	      0.00000000	      0.00000000
      7.52000000	     -7.83988380	      6.06035450	      1.65967516	      0.18825754	      1.05911239	     -0.30649688	      0.00000000	      0.50000000	      0.00000000	      0.25000000	     61.63813855	    -10.24381013	      8.02723954	     97.83404288	      1.70752617	    -19.50799541	    -13.88294900	      0.00000000	      0.00000000	     59.60935351	     -1.71151110	     -4.02659289	     62.03866891	      1.08277904	     -3.59802524	     -7.08242754	      0.00000000	      0.00000000	    -72.81907707	     -7.93461098	     -3.62649604	     88.81565396	    -34.48589137	     39.63115499	     65.36323381	     39.69940163	      0.00000000	      0.00000000	     89.58571201	    -16.60603710	     34.71597004	     68.13656529	     37.05824471	      0.00000000	      0.00000000
      7.52500000	     -7.67560875	      5.91555449	      1.34148814	      0.18805237	      1.05883668	     -0.30656969	      0.00000000	      0.50000000	      0.00000000	      0.25000000	     62.97963299	     -9.84063928	      8.37506712	     99.91443093	      1.74383579	    -19.03725852	    -13.73971621	      0.00000000	      0.00000000	     57.89754082	     -1.83902760	     -4.08036729	     59.64460450	      1.04099473	     -4.97261034	     -7.25234336	      0.00000000	      0.00000000	    -72.92983278	     -7.96693182	     -3.45811951	     88.88857729	    -34.22490526	     39.46778264	     65.42473903	     39.68031023	      0.00000000	      0.00000000	     89.57488686	    -16.80625308	     34.53694640	     68.18324313	     36.96788151	      0.00000000	      0.00000000
      7.53000000	     -7.43431770	      5.84587114	      1.06706111	      0.18786417	      1.05868421	     -0.30685096	      0.00000000	      0.50000000	      0.00000000	      0.25000000	     64.25567554	     -9.57928477	      8.73297165	    101.90246168	      1.77853347	    -18.49250048	    -13.54742600	      0.00000000	      0.00000000	     56.01880326	     -1.81589745	     -4.10855201	     57.19010246	      0.99815559	     -6.26089027	     -7.32690444	      0.00000000	      0.00000000	    -73.13572818	     -7.94450249	     -3.40758775	     88.93659158	    -33.93257940	     39.25372815	     65.54557849	     39.65480666	      0.00000000	      0.00000000	     89.56632314	    -17.05265496	     34.32469972	     68.28019128	     36.86424349	      0.00000000	      0.00000000
      7.53500000	     -7.36121638	      5.27456714	      0.73860347	      0.18767916	      1.05812485	     -0.30706453	      0.00000000	      0.50000000	      0.00000000	      0.25000000	     65.62431235	     -8.94206468	      8.59250568	    103.80252017	      1.81169575	    -17.96535933	    -13.72572452	      0.00000000	      0.00000000	     54.45915894	     -2.26581465	     -3.78365711	     55.03457882	      0.96053460	     -7.16445093	     -6.85284154	      0.00000000	      0.00000000	    -73.06119262	     -7.77021686	     -2.77872562	     89.04405440	    -33.74314278	     39.22682505	     65.59943297	     39.65467779	      0.00000000	      0.00000000	     89.53926665	    -17.26116188	     34.21420626	     68.31852450	     36.84361142	      0.00000000	      0.00000000
